<svg width="17" height="17" viewBox="0 0 17 17" fill="none" xmlns="http://www.w3.org/2000/svg"><g clip-path="url(#clip0_129_43702)"><path d="M7.886.02C6.604.143 5.638.422 4.589.963A8.46 8.46 0 00.897 4.73a7.492 7.492 0 00-.615 1.614c-.199.771-.259 1.24-.262 2.09 0 .425.017.883.04 1.062.182 1.361.607 2.534 1.321 3.63l.24.368-.529 1.557c-.292.86-.524 1.564-.517 1.57.006.007.73-.219 1.613-.5a93.593 93.593 0 011.634-.515c.013 0 .15.076.302.172.153.093.471.266.707.379a8.48 8.48 0 006.8.242 8.563 8.563 0 005.087-5.744c.209-.797.259-1.232.259-2.155 0-.923-.05-1.358-.26-2.155A8.56 8.56 0 0010.394.213 7.953 7.953 0 008.683.02a14.737 14.737 0 00-.797 0zM5.86 3.958a.51.51 0 01.173.182c.096.176.907 2.119.93 2.238.03.15-.12.405-.448.777-.346.389-.419.512-.389.651.057.252.824 1.272 1.298 1.72.734.694 1.843 1.355 2.338 1.391.255.017.345-.053.737-.57.176-.237.362-.472.418-.526.127-.129.316-.156.531-.076.273.103 1.943.917 2.062 1.006l.113.083-.02.352c-.046.903-.365 1.371-1.201 1.78-.797.388-1.422.378-2.64-.043-1.64-.568-2.507-1.11-3.686-2.295a12.113 12.113 0 01-1.487-1.78C3.799 7.72 3.496 6.847 3.586 5.96c.073-.71.322-1.235.823-1.737.243-.242.558-.342 1.036-.325.203.007.352.027.415.06z" fill="#fff"/></g><defs><clipPath id="clip0_129_43702"><path fill="#fff" d="M0 0h17v17H0z"/></clipPath></defs></svg>