<svg width="551" height="551" viewBox="0 0 551 551" fill="none" xmlns="http://www.w3.org/2000/svg"><path d="M294.078 203.987c-9.513-6.939-17.571-13.318-17.907-14.213-1.231-3.246-.671-6.939 1.455-9.513 2.127-2.574 2.686-2.686 25.293-3.245m-8.841 26.971l1.749-2.437.009.006m-1.758 2.431l1.768-2.424a.036.036 0 01-.01-.007m-1.758 2.431c9.512 6.827 17.57 12.87 17.794 13.43.336.447-2.462 10.184-6.155 21.599l43.964-103.927m-53.845 66.467c-4.729-3.449-9.084-6.751-12.289-9.292-1.607-1.275-2.9-2.339-3.798-3.125-.412-.36-.712-.637-.912-.835m16.999 13.252c4.765 3.42 9.174 6.649 12.427 9.1a170.133 170.133 0 013.951 3.048c.482.387.899.733 1.216 1.016.155.138.323.293.474.45a4.7 4.7 0 01.281.322 3.284 3.284 0 01.712 2.205 6.25 6.25 0 01-.077.769c-.07.447-.187.998-.329 1.599-.289 1.221-.737 2.889-1.301 4.863-1.131 3.959-2.764 9.279-4.618 15.007-2.634 8.184-4.224 13.401-5.062 16.82-.419 1.711-.622 2.864-.69 3.654-.054.631-.009.895.004.954.436 1.039 1.36 2.185 2.57 3.084 1.095.813 2.143 1.222 2.903 1.316a16.79 16.79 0 001.227-.625c1.109-.61 2.609-1.519 4.41-2.671 3.592-2.298 8.244-5.482 13.078-8.982l.006-.005.007-.004c4.946-3.542 9.569-6.727 13.039-9.007 1.729-1.137 3.202-2.068 4.298-2.71a20.36 20.36 0 011.464-.795c.201-.096.467-.214.751-.305.14-.044.369-.11.648-.146a3.146 3.146 0 011.497.165c.317.116.582.27.655.311.155.088.325.191.498.299.348.219.793.511 1.312.86 1.042.7 2.453 1.675 4.124 2.848a994.799 994.799 0 0112.49 8.939c4.66 3.384 9.168 6.453 12.658 8.665 1.75 1.109 3.21 1.982 4.289 2.567.531.287.926.482 1.194.598.761-.092 1.814-.501 2.914-1.318 1.21-.899 2.134-2.045 2.57-3.084.013-.059.058-.323.004-.954-.068-.79-.271-1.943-.691-3.654-.837-3.419-2.426-8.634-5.06-16.816-1.854-5.729-3.487-11.052-4.619-15.011-.564-1.974-1.012-3.642-1.301-4.863a22.375 22.375 0 01-.329-1.599 6.437 6.437 0 01-.078-.769 3.816 3.816 0 01.032-.625c.019-.135.081-.574.348-1.07.14-.265.282-.446.333-.51a4.7 4.7 0 01.281-.322c.151-.157.319-.312.474-.45.317-.283.734-.629 1.216-1.016.972-.781 2.326-1.824 3.951-3.048 3.253-2.451 7.662-5.68 12.427-9.1 4.729-3.449 9.084-6.751 12.289-9.292 1.607-1.275 2.9-2.339 3.798-3.125.412-.36.712-.637.912-.835.676-2.183.219-4.533-1.102-6.132-.511-.619-.632-.704-.785-.787-.22-.119-.762-.333-2.255-.527-3.033-.394-8.612-.561-20.014-.843l-23.053-.56-2.111-.051-.664-2.004-6.487-19.572-.003-.009-1.629-4.848c-2.998-8.931-4.473-13.324-5.503-15.667-.59-1.342-.864-1.587-.899-1.618-.076-.067-.091-.074-.445-.236-.169-.077-.415-.189-.782-.361m-70.844 53.215c.041.134.087.268.137.4m-.137-.4l-.058-.058a3.19 3.19 0 01-.132-.139l-.001-.001c.003.003.037.045.085.118.036.055.146.225.243.48m-.137-.4c-.676-2.183-.219-4.533 1.102-6.132.511-.619.632-.704.785-.787.22-.119.762-.333 2.255-.527 3.033-.394 8.612-.561 20.014-.843m-24.019 8.689l.003.006-.003-.006zm24.019-8.689h-.001l-.073-2.999m.074 2.999l-.074-2.999m.074 2.999l23.053-.56 2.111-.051.664-2.004 6.491-19.585.003-.009.003-.009c3.494-10.765 5.312-16.201 6.646-19.212.653-1.473 1.099-2.149 1.431-2.528.294-.337.602-.568 1.323-.991m-41.799 41.95l23.054-.56 18.734-41.384.011-.006m0 0c1.317-.759 1.831-.861 2.178-.865.424-.006 1.106.131 2.785.888m-4.963-.023l4.963.023M233.649 40.597l.004-.003c16.533-16.478 25.638-25.5 31.051-30.388 5.235-4.729 7.697-6.3 10.796-6.3 3.099 0 5.561 1.571 10.796 6.3 5.413 4.889 14.518 13.91 31.051 30.388l.004.003 34.934 34.934h115.979l.885.923 2.644 2.753 2.753 2.644.923.885v115.979l34.934 34.934.003.004c16.478 16.533 25.499 25.638 30.388 31.051 4.729 5.235 6.3 7.697 6.3 10.796 0 3.099-1.571 5.561-6.3 10.796-4.889 5.413-13.91 14.518-30.388 31.051l-.003.004-34.934 34.934v115.979l-.923.885-2.754 2.644-2.643 2.753-.885.923H352.285l-34.934 34.934-.004.003c-16.533 16.478-25.638 25.499-31.051 30.388-5.235 4.729-7.697 6.3-10.796 6.3-3.099 0-5.561-1.571-10.796-6.3-5.413-4.889-14.518-13.91-31.051-30.388l-.004-.003-34.934-34.934H82.736l-.885-.923-2.644-2.753-2.753-2.644-.923-.885V352.285l-34.934-34.934-.003-.004c-16.478-16.533-25.5-25.638-30.388-31.051-4.729-5.235-6.3-7.697-6.3-10.796 0-3.099 1.571-5.561 6.3-10.796 4.889-5.413 13.91-14.518 30.388-31.051l.003-.004 34.934-34.934V82.736l.923-.885 2.753-2.644 2.644-2.753.885-.923h115.979l34.934-34.934zM415.274 188.71l.002-.006-.006.016.004-.01zm-196.152 36.821v-.012c1.846-30.917 14.507-54.481 40.905-76.54 2.609-2.211 3.801-3.39 4.404-4.275.429-.629.571-1.1.571-2.27 0-1.116-.156-1.803-.398-2.329-.241-.524-.67-1.113-1.56-1.87-.793-.669-1.335-1.024-1.861-1.244-.502-.211-1.158-.368-2.236-.384-2.341-.036-6.018.574-13.048 2.048-12.34 2.623-29.492 9.222-39.844 15.213-46.06 26.982-72.989 76.076-70.361 128.196v.006c1.754 36.283 15.085 66.026 41.097 92.148l-2.126 2.117 2.126-2.117c25.666 25.775 55.962 39.334 92.139 41.088h.009c70.538 3.615 133.989-48.003 144.832-117.661l.002-.012.002-.012c.637-3.882.825-5.523.729-6.552-.061-.648-.201-1.019-1.186-2.368-.653-.868-1.159-1.283-1.673-1.544-.551-.279-1.365-.508-2.831-.606l-.013-.001-.012-.001c-1.17-.087-1.708-.102-2.1-.048-.248.033-.454.094-.814.351-.451.322-1.077.908-2.096 2.053-1.004 1.127-2.255 2.641-3.972 4.724-19.102 23.471-44.499 36.521-74.332 38.249h-.005c-59.645 3.346-109.694-46.587-106.348-106.347z" fill="#076242" stroke="#E5D675" stroke-width="6"/><path fill="#076242" d="M106.852 131.234h325.106v300.723H106.852z"/></svg>